<svg width="24" height="24" viewBox="0 0 24 24" fill="none" xmlns="http://www.w3.org/2000/svg">
<path fill-rule="evenodd" clip-rule="evenodd" d="M15.4372 12.4458C15.2386 11.9258 14.8709 11.4756 14.3846 11.1571C13.8983 10.8387 13.3174 10.6677 12.7218 10.6677V10.001H11.282V10.6677C10.5183 10.6677 9.78589 10.9487 9.24587 11.4488C8.70585 11.949 8.40247 12.6273 8.40247 13.3346C8.40247 14.0419 8.70585 14.7202 9.24587 15.2204C9.78589 15.7205 10.5183 16.0015 11.282 16.0015V18.6684C10.6557 18.6684 10.1223 18.2983 9.92359 17.7796C9.89411 17.6948 9.84656 17.6162 9.78374 17.5487C9.72092 17.4811 9.64411 17.426 9.55786 17.3864C9.47161 17.3468 9.37766 17.3237 9.28158 17.3183C9.1855 17.3129 9.08923 17.3255 8.99847 17.3552C8.90771 17.3849 8.82431 17.4311 8.75319 17.4912C8.68207 17.5513 8.62468 17.6239 8.58442 17.7049C8.54415 17.7859 8.52183 17.8735 8.51877 17.9626C8.51571 18.0517 8.53197 18.1405 8.5666 18.2237C8.76517 18.7437 9.13293 19.1939 9.61922 19.5124C10.1055 19.8308 10.6864 20.0018 11.282 20.0018V20.6685H12.7218V20.0018C13.4855 20.0018 14.2179 19.7208 14.7579 19.2207C15.298 18.7206 15.6013 18.0422 15.6013 17.3349C15.6013 16.6276 15.298 15.9493 14.7579 15.4491C14.2179 14.949 13.4855 14.668 12.7218 14.668V12.0011C13.0196 12.0011 13.31 12.0865 13.5532 12.2457C13.7963 12.4048 13.9802 12.6299 14.0795 12.8899C14.1431 13.0566 14.2756 13.1932 14.4478 13.2694C14.5331 13.3072 14.6256 13.329 14.72 13.3337C14.8145 13.3383 14.9089 13.3257 14.9981 13.2966C15.0872 13.2674 15.1693 13.2223 15.2396 13.1638C15.3099 13.1052 15.3671 13.0344 15.4079 12.9554C15.4487 12.8764 15.4722 12.7908 15.4773 12.7033C15.4823 12.6159 15.4687 12.5284 15.4372 12.4458V12.4458ZM11.282 12.0011C10.9002 12.0011 10.534 12.1416 10.2639 12.3917C9.99393 12.6418 9.84224 12.9809 9.84224 13.3346C9.84224 13.6882 9.99393 14.0274 10.2639 14.2775C10.534 14.5275 10.9002 14.668 11.282 14.668V12.0011ZM12.7218 18.6684C13.1036 18.6684 13.4699 18.5279 13.7399 18.2778C14.0099 18.0277 14.1616 17.6886 14.1616 17.3349C14.1616 16.9813 14.0099 16.6421 13.7399 16.392C13.4699 16.142 13.1036 16.0015 12.7218 16.0015V18.6684Z" fill="#F66512"/>
<path fill-rule="evenodd" clip-rule="evenodd" d="M4.19324 1.74748C5.95985 0.946746 8.85812 0 12.0299 0C15.1355 0 17.9575 0.907409 19.7148 1.69747L19.8141 1.74214C20.3439 1.98483 20.7715 2.21418 21.0725 2.4002L18.4132 6.0005C24.5438 11.805 29.2792 24 12.0299 24C-5.21929 24 -0.611289 12.0263 5.57255 6.0005L2.93056 2.4002C3.13429 2.27686 3.39273 2.13351 3.70084 1.9815C3.85346 1.90549 4.01759 1.82749 4.19324 1.74815V1.74748ZM16.7042 5.9525L18.8329 3.07026C16.8532 3.20227 14.4977 3.63297 12.2301 4.24102C10.6103 4.67439 8.81061 4.60838 7.14407 4.32369C6.72411 4.25159 6.30703 4.16575 5.89362 4.06634L7.2758 5.95116C10.2381 6.92791 13.7411 6.92791 16.7042 5.9525V5.9525ZM6.44433 7.08726C9.9106 8.32736 14.0766 8.32736 17.5429 7.08592C18.9897 8.4985 20.2001 10.1038 21.1337 11.8483C22.1069 13.6871 22.6368 15.5253 22.5504 17.1094C22.4669 18.6382 21.8175 19.9443 20.3346 20.9151C18.789 21.9265 16.1895 22.6666 12.0292 22.6666C7.86467 22.6666 5.25292 21.9392 3.69292 20.9391C2.19915 19.9803 1.54334 18.6922 1.45047 17.1841C1.35329 15.6173 1.8716 13.7885 2.84129 11.937C3.76635 10.1715 5.05711 8.47204 6.44433 7.08726V7.08726ZM5.61646 2.61088C6.19237 2.76956 6.7942 2.90758 7.40467 3.01225C8.95242 3.27627 10.5045 3.31494 11.8291 2.95958C13.3727 2.54311 14.9427 2.21556 16.53 1.97883C15.2054 1.60947 13.6562 1.33344 12.0292 1.33344C9.54921 1.33344 7.23621 1.97416 5.61646 2.61088V2.61088Z" fill="#F66512"/>
</svg>
