<svg width="40" height="40" viewBox="0 0 40 40" fill="none" xmlns="http://www.w3.org/2000/svg">
<path d="M16.6665 13.3333V23.3333L24.4998 28.1666L25.8332 26.1666L19.1665 22.1666V13.3333H16.6665Z" fill="#393939"/>
<path d="M29.8668 20.0001C30.1181 21.6566 30.0073 23.348 29.5421 24.9576C29.077 26.5673 28.2685 28.057 27.1724 29.3242C26.0762 30.5914 24.7185 31.606 23.1926 32.2981C21.6667 32.9902 20.009 33.3434 18.3335 33.3334C11.8335 33.3334 6.66683 28.1667 6.66683 21.6667C6.66683 15.1667 11.8335 10.0001 18.3335 10.0001C19.5002 10.0001 20.6168 10.1667 21.6668 10.4834V7.05008C20.6002 6.80008 19.4835 6.66675 18.3335 6.66675C10.0002 6.66675 3.3335 13.3334 3.3335 21.6667C3.3335 30.0001 10.0002 36.6667 18.3335 36.6667C20.4463 36.6755 22.5369 36.236 24.4674 35.3772C26.3978 34.5184 28.1241 33.2599 29.5322 31.6848C30.9404 30.1096 31.9984 28.2537 32.6365 26.2395C33.2745 24.2253 33.478 22.0987 33.2335 20.0001H29.8668Z" fill="#393939"/>
<path d="M33.3333 8.33325V3.33325H30V8.33325H25V11.6666H30V16.6666H33.3333V11.6666H38.3333V8.33325H33.3333Z" fill="#393939"/>
</svg>
