<svg width="40" height="40" viewBox="0 0 40 40" fill="none" xmlns="http://www.w3.org/2000/svg">
<path d="M17.5658 24.375L14.0158 20.8251L12.2492 22.5917L17.5492 27.8917L27.5492 17.8917L25.7825 16.125L17.5658 24.375ZM28.8942 3.17505L36.5725 9.58338L34.4392 12.1417L26.7558 5.73672L28.8942 3.17505ZM11.1042 3.17505L13.2408 5.73505L5.56082 12.1417L3.42749 9.58172L11.1042 3.17505ZM19.9992 6.82505C11.7158 6.82505 4.99916 13.5417 4.99916 21.8251C4.99916 30.1084 11.7158 36.8251 19.9992 36.8251C28.2825 36.8251 34.9992 30.1084 34.9992 21.8251C34.9992 13.5417 28.2825 6.82505 19.9992 6.82505ZM19.9992 33.4917C13.5658 33.4917 8.33249 28.2584 8.33249 21.8251C8.33249 15.3917 13.5658 10.1584 19.9992 10.1584C26.4325 10.1584 31.6658 15.3917 31.6658 21.8251C31.6658 28.2584 26.4325 33.4917 19.9992 33.4917Z" fill="#393939"/>
</svg>
