<svg width="26" height="26" viewBox="0 0 26 26" fill="none" xmlns="http://www.w3.org/2000/svg">
<path d="M10.8288 5.98135C11.6038 5.75635 12.4288 5.61885 13.2788 5.61885C18.1038 5.61885 22.0288 9.54385 22.0288 14.3688C22.0288 15.2188 21.8913 16.0438 21.6663 16.8188L23.6163 18.7688C24.2038 17.4188 24.5288 15.9313 24.5288 14.3688C24.5288 8.15635 19.4913 3.11885 13.2788 3.11885C11.7163 3.11885 10.2288 3.44385 8.86626 4.01885L10.8288 5.98135ZM19.95 0.381348L25.7088 5.1876L24.1088 7.10635L18.3463 2.3026L19.95 0.381348ZM2.05376 0.743848L0.29126 2.50635L2.00376 4.21885L0.85376 5.18135L2.45376 7.10635L3.77876 6.00635L4.77876 7.00635C3.06626 8.98135 2.02876 11.5563 2.02876 14.3688C2.02876 20.5813 7.06626 25.6188 13.2788 25.6188C16.0913 25.6188 18.6663 24.5813 20.6413 22.8688L23.2663 25.4938L25.0288 23.7313L2.05376 0.743848ZM13.2788 23.1188C8.45376 23.1188 4.52876 19.1938 4.52876 14.3688C4.52876 12.2438 5.29126 10.2938 6.55376 8.78135L18.8663 21.0938C17.3538 22.3563 15.4038 23.1188 13.2788 23.1188ZM7.62876 2.78135L8.20376 2.30635L6.60376 0.381348L5.85376 1.00635L7.62876 2.78135Z" fill="#F66512"/>
</svg>
