<svg width="40" height="40" viewBox="0 0 40 40" fill="none" xmlns="http://www.w3.org/2000/svg">
<path d="M22.5 5C14.2167 5 7.5 11.7167 7.5 20H2.5L8.98333 26.4833L9.1 26.7167L15.8333 20H10.8333C10.8333 13.55 16.05 8.33333 22.5 8.33333C28.95 8.33333 34.1667 13.55 34.1667 20C34.1667 26.45 28.95 31.6667 22.5 31.6667C19.2833 31.6667 16.3667 30.35 14.2667 28.2333L11.9 30.6C14.6167 33.3167 18.35 35 22.5 35C30.7833 35 37.5 28.2833 37.5 20C37.5 11.7167 30.7833 5 22.5 5ZM20.8333 13.3333V21.6667L27.9167 25.8667L29.2 23.7333L23.3333 20.25V13.3333H20.8333Z" fill="#393939"/>
</svg>
